<?xml version="1.0" encoding="utf-8"?>
<!-- Generator: Adobe Illustrator 23.1.0, SVG Export Plug-In . SVG Version: 6.00 Build 0)  -->
<svg version="1.1" id="Layer_1" xmlns="http://www.w3.org/2000/svg" xmlns:xlink="http://www.w3.org/1999/xlink" x="0px" y="0px"
	 viewBox="0 0 408 580" style="enable-background:new 0 0 408 580;" xml:space="preserve">
<style type="text/css">
	.st0{fill:#E50112;}
	.st1{fill:#231F20;}
</style>
<path class="st0" d="M129.47,514.95c33.49,21.63,69.96,38.3,107.1,52.57c8.38,3.22,13.08-9.07,5.1-12.86
	c-17.51-8.32-35.16-16.36-52.57-24.9c34.49-23.11,70.41-67.49,51.13-108.23c-9.14-19.31-31.99-25.19-51.11-17.56
	c-12.68,5.06-19.39,14.67-23.13,25.94c-8.78-11.85-22.41-19.87-38.69-20.68c-24.23-1.21-47.36,15.23-48.42,40.39
	C77.56,480.95,106.22,499.93,129.47,514.95z"/>
<path class="st0" d="M65.67,184.78c15.99,14.32,34.18,27.7,54.28,35.46c7.9,3.05,13.08-7.05,5.98-11.66
	c-1.16-0.75-2.31-1.5-3.47-2.25c0.09-0.25,0.16-0.51,0.23-0.78c4.7-19.55,6.66-39.58,5.14-59.67c-1.09-14.38-2.78-32.93-10.82-45.43
	c-6.03-9.37-16.89-15.43-27.54-9.31c-11.53,6.62-10.63,18.61-11.94,29.84c-10.63-7.87-24.19-14.6-36.08-11.7
	c-13.12,3.2-17.59,17.76-13.48,29.63C34.04,156.4,52.28,172.78,65.67,184.78z"/>
<path class="st0" d="M363.42,52.42c-8.65-6.38-19.94-5.59-27.89,2.15c-7.49,7.3-9.99,17.76-9.38,28.37c-10.87-5.34-22.8-8-33.21,0.1
	c-10.37,8.07-13.97,24.13-11.16,38.23c8.36,41.94,52.75,37.33,79.17,32.66c2.54-0.45,4.05-2.35,4.64-4.63
	c0.25-0.49,0.47-1.04,0.62-1.68C372.33,122.56,387.9,70.47,363.42,52.42z"/>
<path class="st1" d="M129.47,487.29c33.49,21.63,69.96,38.3,107.1,52.57c8.38,3.22,13.08-9.07,5.1-12.86
	c-17.51-8.32-35.16-16.36-52.57-24.9c34.49-23.11,70.41-67.49,51.13-108.23c-9.14-19.31-31.99-25.19-51.11-17.56
	c-12.68,5.06-19.39,14.67-23.13,25.94c-8.78-11.85-22.41-19.87-38.69-20.68c-24.23-1.21-47.36,15.23-48.42,40.39
	C77.56,453.3,106.22,472.27,129.47,487.29z M108.06,401.09c24.17-12.93,53.48,6.41,52.93,33.15c-0.2,9.97,14.97,12.14,15.68,1.85
	c1.15-16.65,1.15-39.84,20.36-46c19.34-6.2,32.06,7.1,32.89,25.52c1.4,30.94-26.86,63.52-52.51,80.63c-2.55-1.3-5.09-2.6-7.62-3.93
	c-21.85-11.48-48.86-25.21-65.35-44.05C92.04,434.12,89.37,411.09,108.06,401.09z"/>
<path class="st1" d="M65.67,157.12c15.99,14.32,34.18,27.7,54.28,35.46c7.9,3.05,13.08-7.05,5.98-11.66
	c-1.16-0.75-2.31-1.5-3.47-2.25c0.09-0.25,0.16-0.51,0.23-0.78c4.7-19.55,6.66-39.58,5.14-59.67c-1.09-14.38-2.78-32.93-10.82-45.43
	c-6.03-9.37-16.89-15.43-27.54-9.31c-11.53,6.62-10.63,18.61-11.94,29.84c-10.63-7.87-24.19-14.6-36.08-11.7
	c-13.12,3.2-17.59,17.76-13.48,29.63C34.04,128.74,52.28,145.13,65.67,157.12z M43.01,106.42c-3.04-21.66,29.74,3.14,33.73,6.86
	c3.51,3.28,10.39,2.56,12.36-2.21c3.37-8.13,1.37-16.86,4.23-24.59c8.31-22.47,16.91,12.09,17.94,17.74
	c4.04,22.18,3.4,44.48-1.04,66.46c-15.39-10.2-30.17-20.81-43.42-34.23C60.08,129.62,44.47,116.83,43.01,106.42z"/>
<path class="st1" d="M363.42,24.76c-8.65-6.38-19.94-5.59-27.89,2.15c-7.49,7.3-9.99,17.76-9.38,28.37c-10.87-5.34-22.8-8-33.21,0.1
	c-10.37,8.07-13.97,24.13-11.16,38.23c8.36,41.94,52.75,37.33,79.17,32.66c2.54-0.45,4.05-2.35,4.64-4.63
	c0.25-0.49,0.47-1.04,0.62-1.68C372.33,94.9,387.9,42.82,363.42,24.76z M308.67,108.6c-9.51-5.41-18.86-19.49-13.46-32.99
	c7.36-18.41,26.6-7.03,37.22-0.61c4.66,2.82,9.78-3.87,7.86-9.44c-2.53-7.35-3.68-18.54,0.46-25.56c4.35-7.37,15.63-5.67,19.83,0.82
	c4.65,7.17,3.23,19.39,2.23,27.53c-1.82,14.92-5.24,29.42-7.16,44.33C340.31,114.67,322.72,116.6,308.67,108.6z"/>
</svg>
