<?xml version="1.0" encoding="utf-8"?>
<!-- Generator: Adobe Illustrator 23.1.0, SVG Export Plug-In . SVG Version: 6.00 Build 0)  -->
<svg version="1.1" id="Layer_1" xmlns="http://www.w3.org/2000/svg" xmlns:xlink="http://www.w3.org/1999/xlink" x="0px" y="0px"
	 viewBox="0 0 408 580" style="enable-background:new 0 0 408 580;" xml:space="preserve">
<style type="text/css">
	.st0{fill:#E50112;}
	.st1{fill:#231F20;}
</style>
<path class="st0" d="M361.33,366.59c-16.98-18.44-37.69,4.14-50.21,21.31c-6.17-9.77-14.1-18.44-25.66-21.24
	c-15.32-3.71-29.51,5.43-36.21,19.05c-8.99,18.27-2.03,38.45,6.26,55.57c9.8,20.26,22.09,39.07,36.33,56.46
	c-24.32,23.42-53.21,41.41-85.23,53.47c-7.7,2.9-2.95,13.72,4.62,11.61c60.89-16.98,114.47-63.18,143.29-119.18
	C364.8,423.65,379.66,386.49,361.33,366.59z"/>
<g>
	<path class="st0" d="M306.1,52.68C295.5,56.6,285.56,65.64,278,76.3c-2.6-5.93-6.67-10.98-12.94-14.09
		c-14.75-7.3-26.89,6.28-32.33,18.68c-15.44,35.19,3.07,77.39,24.14,106.52c-1.6,1.57-3.2,3.15-4.77,4.74
		c-6.29,6.34,3.9,16.08,10.75,11.02c22.03-16.27,43.35-35.72,59.19-58.2c13.2-18.74,27.99-45.59,22.44-69.25
		C340.44,58.55,323.62,46.2,306.1,52.68z"/>
</g>
<path class="st0" d="M130.96,253.68c-1.39-13.89-12.71-26.48-27.43-23.58c-13.35,2.63-23.88,15.75-30.92,28.66
	c-6.56-10.72-11.26-23.23-25.98-24.52c-13.6-1.2-21.73,9.99-23.43,22.25c-2.27,16.36,4.69,35.86,10.31,50.88
	c7.85,20.97,19.18,40.25,33.06,57.78c0.19,0.24,0.39,0.47,0.59,0.68c-0.81,1.29-1.63,2.59-2.44,3.89c-5,7.97,4.94,15.74,11.48,8.97
	c16.64-17.22,28.74-39.21,38.18-61.13C122.27,299.2,133.01,274.14,130.96,253.68z"/>
<path class="st1" d="M361.33,335.85c-16.98-18.44-37.69,4.14-50.21,21.31c-6.17-9.77-14.1-18.44-25.66-21.24
	c-15.32-3.71-29.51,5.43-36.21,19.05c-8.99,18.27-2.03,38.45,6.26,55.57c9.8,20.26,22.09,39.07,36.33,56.46
	c-24.32,23.42-53.21,41.41-85.23,53.47c-7.7,2.9-2.95,13.72,4.62,11.61c60.89-16.98,114.47-63.18,143.29-119.18
	C364.8,392.91,379.66,355.75,361.33,335.85z M350.11,377.22c-6.01,24.1-20.49,45.33-35.59,64.63c-3.7,4.73-7.56,9.29-11.57,13.7
	c-14.67-18.62-27.73-39.02-36.34-61.16c-4.48-11.53-9.41-32.89,4.98-40.57c15.34-8.19,25.7,11.35,31.16,21.89
	c2.6,5.01,10.39,7.75,14.15,2.03c5.38-8.19,13.68-22.78,22.59-27.68C357.27,340.26,352.44,367.88,350.11,377.22z"/>
<g>
	<path class="st1" d="M306.1,21.94C295.5,25.86,285.56,34.9,278,45.56c-2.6-5.93-6.67-10.98-12.94-14.09
		c-14.75-7.3-26.89,6.28-32.33,18.68c-15.44,35.19,3.07,77.39,24.14,106.51c-1.6,1.57-3.2,3.15-4.77,4.74
		c-6.29,6.34,3.9,16.08,10.75,11.02c22.03-16.27,43.35-35.72,59.19-58.2c13.2-18.74,27.99-45.59,22.44-69.25
		C340.44,27.81,323.62,15.46,306.1,21.94z M312.03,96.37c-12.23,19.31-28.72,34.93-45.11,50.6c-11.16-17.98-19.56-39.16-22.62-60.01
		c-1.42-9.68-0.47-19.06,3.34-28.16c2.62-6.26,5.93-16,14.72-4.83c3.85,4.89,2.6,16.34,2.36,21.62
		c-0.51,11.19,15.46,13.7,17.46,2.36c1.55-8.76,6.14-15.62,11.6-22.42c5.1-6.36,16.03-20.33,25.59-16.98
		C340.08,45.78,318.77,85.72,312.03,96.37z"/>
</g>
<path class="st1" d="M130.96,222.94c-1.39-13.89-12.71-26.48-27.43-23.58c-13.35,2.63-23.88,15.75-30.92,28.66
	c-6.56-10.72-11.26-23.23-25.98-24.52c-13.6-1.2-21.73,9.99-23.43,22.25c-2.27,16.36,4.69,35.86,10.31,50.88
	c7.85,20.97,19.18,40.25,33.06,57.78c0.19,0.24,0.39,0.47,0.59,0.68c-0.81,1.29-1.63,2.59-2.44,3.89c-5,7.97,4.94,15.74,11.48,8.97
	c16.64-17.22,28.74-39.21,38.18-61.13C122.27,268.46,133.01,243.4,130.96,222.94z M103.55,266.49
	c-7.09,19.72-17.04,37.33-27.8,54.81c-14.75-20.1-25.81-42.29-32.1-66.55c-1.6-6.18-9.07-45.05,9.81-26.27
	c6.5,6.46,8.56,16.19,15.75,22.82c4.23,3.89,11.5,1.4,13.5-3.54c2.28-5.62,23.76-45.94,30.81-22.68
	C116.93,236.26,107.16,256.46,103.55,266.49z"/>
</svg>
